<svg version="1.1" xmlns="http://www.w3.org/2000/svg" xmlns:xlink="http://www.w3.org/1999/xlink" role="img" width="313" height="90" viewbox="0 0 313 90"><title>pascal voc</title><desc>Generated by logo.svg, https://github.com/bubkoo/logo.svg</desc><path fill="#2b68a7" d="M0.55 85.71L9.06 45.14Q9.32 43.86 9.48 42.96Q9.64 42.06 9.64 41.74Q9.64 39.82 8.33 39.28Q7.02 38.74 5.16 38.74L4.65 38.74L5.22 36.05L16.55 36.05L15.02 44.56L15.34 44.56Q16.62 42.06 18.25 39.98Q19.88 37.90 22.02 36.66Q24.17 35.41 27.05 35.41Q30.95 35.41 33.06 38.38Q35.18 41.36 35.18 46.99Q35.18 49.74 34.41 52.98Q33.64 56.21 32.14 59.41Q30.63 62.61 28.36 65.23Q26.09 67.86 23.02 69.42Q19.94 70.99 16.10 70.99Q14.25 70.99 12.65 70.61Q11.05 70.22 9.83 69.52Q9.83 69.52 9.70 70.51Q9.58 71.50 9.32 72.59L8.42 76.50Q8.30 76.88 8.07 78.13Q7.85 79.38 7.85 80.08Q7.85 82 9.16 82.51Q10.47 83.02 12.33 83.02L13.16 83.02L12.58 85.71L0.55 85.71M15.91 68.11Q18.34 68.11 20.36 66.70Q22.38 65.30 23.91 62.93Q25.45 60.56 26.50 57.78Q27.56 54.99 28.10 52.14Q28.65 49.30 28.65 46.93Q28.65 45.07 28.30 43.34Q27.94 41.62 27.08 40.53Q26.22 39.44 24.62 39.44Q22.76 39.44 20.97 40.85Q19.18 42.26 17.64 44.46Q16.10 46.67 15.02 49.10Q13.93 51.54 13.48 53.65L10.86 65.81Q11.43 66.51 12.78 67.31Q14.12 68.11 15.91 68.11ZM48.94 70.99Q46.12 70.99 44.26 69.46Q42.41 67.92 41.54 65.26Q40.68 62.61 40.68 59.28Q40.68 56.27 41.48 52.98Q42.28 49.68 43.88 46.58Q45.48 43.47 47.78 40.94Q50.09 38.42 53.10 36.91Q56.10 35.41 59.75 35.41Q62.06 35.41 64.01 36.05Q65.96 36.69 67.24 37.71L70.06 36.11L72.10 36.11L67.75 56.59Q67.62 57.30 67.37 58.64Q67.11 59.98 66.95 61.39Q66.79 62.80 66.79 63.70Q66.79 66.96 68.90 66.96Q69.93 66.96 71.11 66.48Q72.30 66 73.51 65.30L74.66 67.15Q73.77 67.98 72.23 68.88Q70.70 69.78 68.97 70.38Q67.24 70.99 65.64 70.99Q63.34 70.99 61.99 69.58Q60.65 68.18 60.65 65.68Q60.65 64.40 60.81 63.34Q60.97 62.29 61.29 60.69L60.90 60.69Q58.66 65.62 55.69 68.30Q52.71 70.99 48.94 70.99M51.24 66.96Q52.90 66.96 54.66 65.68Q56.42 64.40 57.99 62.22Q59.56 60.05 60.78 57.36Q61.99 54.67 62.57 51.92L64.94 40.59Q64.23 39.44 62.89 38.86Q61.54 38.29 60.07 38.29Q57.51 38.29 55.46 39.73Q53.42 41.17 51.88 43.54Q50.34 45.90 49.29 48.72Q48.23 51.54 47.72 54.38Q47.21 57.23 47.21 59.54Q47.21 63.50 48.36 65.23Q49.51 66.96 51.24 66.96ZM87.14 70.99Q82.34 70.99 79.46 69.07Q76.58 67.15 76.58 63.76Q76.58 62.03 77.26 61.14Q77.93 60.24 78.89 59.89Q79.85 59.54 80.62 59.54Q80.62 61.78 81.32 63.70Q82.02 65.62 83.62 66.77Q85.22 67.92 87.91 67.92Q91.11 67.92 92.97 66.45Q94.82 64.98 94.82 61.97Q94.82 59.73 93.35 58.13Q91.88 56.53 88.36 54.93Q84.84 53.26 82.73 51.06Q80.62 48.85 80.62 45.01Q80.62 40.91 83.94 38.19Q87.27 35.47 92.97 35.47Q96.49 35.47 98.66 36.37Q100.84 37.26 101.90 38.67Q102.95 40.08 102.95 41.55Q102.95 43.60 101.64 44.56Q100.33 45.52 98.15 45.52Q98.15 43.86 97.61 42.19Q97.06 40.53 95.82 39.47Q94.57 38.42 92.39 38.42Q89.51 38.42 87.85 39.98Q86.18 41.55 86.18 43.92Q86.18 46.10 87.75 47.54Q89.32 48.98 92.71 50.51Q96.23 52.11 98.31 54.42Q100.39 56.72 100.39 60.43Q100.39 65.10 96.84 68.05Q93.29 70.99 87.14 70.99ZM119.91 70.99Q116.46 70.99 113.64 69.52Q110.82 68.05 109.13 65.14Q107.43 62.22 107.43 57.74Q107.43 54.22 108.65 50.32Q109.86 46.42 112.30 43.02Q114.73 39.63 118.28 37.52Q121.83 35.41 126.50 35.41Q131.30 35.41 133.58 37.30Q135.85 39.18 135.85 41.55Q135.85 43.34 134.38 44.69Q132.90 46.03 130.15 46.03Q130.15 42.96 128.97 40.72Q127.78 38.48 125.22 38.48Q123.18 38.48 121.45 39.86Q119.72 41.23 118.34 43.44Q116.97 45.65 116.04 48.30Q115.11 50.96 114.60 53.58Q114.09 56.21 114.09 58.26Q114.09 62.42 115.88 64.69Q117.67 66.96 121.13 66.96Q124.52 66.96 126.76 65.49Q129 64.02 130.34 62.35Q130.98 62.80 130.98 63.95Q130.98 65.36 129.80 66.99Q128.62 68.62 126.18 69.81Q123.75 70.99 119.91 70.99ZM146.86 70.99Q144.04 70.99 142.18 69.46Q140.33 67.92 139.46 65.26Q138.60 62.61 138.60 59.28Q138.60 56.27 139.40 52.98Q140.20 49.68 141.80 46.58Q143.40 43.47 145.70 40.94Q148.01 38.42 151.02 36.91Q154.02 35.41 157.67 35.41Q159.98 35.41 161.93 36.05Q163.88 36.69 165.16 37.71L167.98 36.11L170.02 36.11L165.67 56.59Q165.54 57.30 165.29 58.64Q165.03 59.98 164.87 61.39Q164.71 62.80 164.71 63.70Q164.71 66.96 166.82 66.96Q167.85 66.96 169.03 66.48Q170.22 66 171.43 65.30L172.58 67.15Q171.69 67.98 170.15 68.88Q168.62 69.78 166.89 70.38Q165.16 70.99 163.56 70.99Q161.26 70.99 159.91 69.58Q158.57 68.18 158.57 65.68Q158.57 64.40 158.73 63.34Q158.89 62.29 159.21 60.69L158.82 60.69Q156.58 65.62 153.61 68.30Q150.63 70.99 146.86 70.99M149.16 66.96Q150.82 66.96 152.58 65.68Q154.34 64.40 155.91 62.22Q157.48 60.05 158.70 57.36Q159.91 54.67 160.49 51.92L162.86 40.59Q162.15 39.44 160.81 38.86Q159.46 38.29 157.99 38.29Q155.43 38.29 153.38 39.73Q151.34 41.17 149.80 43.54Q148.26 45.90 147.21 48.72Q146.15 51.54 145.64 54.38Q145.13 57.23 145.13 59.54Q145.13 63.50 146.28 65.23Q147.43 66.96 149.16 66.96ZM182.89 70.99Q180.33 70.99 178.95 69.20Q177.58 67.41 177.58 64.91Q177.58 63.57 177.83 61.71Q178.09 59.86 178.41 58Q178.73 56.14 178.98 54.86L184.23 30.29Q184.42 29.39 184.52 28.56Q184.62 27.73 184.62 27.41Q184.62 25.49 183.30 24.94Q181.99 24.40 180.14 24.40L179.37 24.40L179.94 21.71L192.04 21.71L184.62 56.59Q184.42 57.30 184.20 58.64Q183.98 59.98 183.78 61.39Q183.59 62.80 183.59 63.70Q183.59 66.96 185.70 66.96Q186.73 66.96 187.91 66.48Q189.10 66 190.31 65.30L191.46 67.15Q190.06 68.43 187.69 69.71Q185.32 70.99 182.89 70.99ZM219.62 70.93L215.14 42.13Q214.82 40.14 213.70 39.44Q212.58 38.74 210.73 38.74L210.09 38.74L210.60 36.05L220.20 36.05L223.14 54.99Q223.46 57.17 223.75 59.38Q224.04 61.58 224.26 63.41Q224.49 65.23 224.62 66.32L224.81 66.32Q227.11 64.08 229.26 61.33Q231.40 58.58 233.03 55.73Q234.66 52.88 235.62 50.26Q236.58 47.63 236.58 45.71Q236.58 43.47 235.50 42.16Q234.41 40.85 232.62 40.85Q232.62 38.22 234.02 36.98Q235.43 35.73 236.97 35.73Q238.95 35.73 240.14 37.10Q241.32 38.48 241.32 41.68Q241.32 45.46 239.69 49.55Q238.06 53.65 235.53 57.58Q233 61.52 230.28 64.82Q227.56 68.11 225.38 70.29L219.62 70.93ZM258.47 70.99Q253.03 70.99 249.61 67.70Q246.18 64.40 246.18 57.74Q246.18 54.22 247.34 50.32Q248.49 46.42 250.86 43.02Q253.22 39.63 256.81 37.52Q260.39 35.41 265.26 35.41Q268.65 35.41 271.40 36.75Q274.15 38.10 275.78 41.04Q277.42 43.98 277.42 48.66Q277.42 51.41 276.71 54.45Q276.01 57.49 274.54 60.43Q273.06 63.38 270.82 65.74Q268.58 68.11 265.48 69.55Q262.38 70.99 258.47 70.99M259.18 67.73Q262.31 67.73 264.52 65.71Q266.73 63.70 268.10 60.53Q269.48 57.36 270.12 53.90Q270.76 50.45 270.76 47.57Q270.76 42.77 269.10 40.72Q267.43 38.67 264.49 38.67Q261.99 38.67 260.07 40.02Q258.15 41.36 256.78 43.57Q255.40 45.78 254.54 48.46Q253.67 51.15 253.26 53.87Q252.84 56.59 252.84 58.90Q252.84 63.76 254.57 65.74Q256.30 67.73 259.18 67.73ZM295.40 70.99Q291.94 70.99 289.13 69.52Q286.31 68.05 284.62 65.14Q282.92 62.22 282.92 57.74Q282.92 54.22 284.14 50.32Q285.35 46.42 287.78 43.02Q290.22 39.63 293.77 37.52Q297.32 35.41 301.99 35.41Q306.79 35.41 309.06 37.30Q311.34 39.18 311.34 41.55Q311.34 43.34 309.86 44.69Q308.39 46.03 305.64 46.03Q305.64 42.96 304.46 40.72Q303.27 38.48 300.71 38.48Q298.66 38.48 296.94 39.86Q295.21 41.23 293.83 43.44Q292.46 45.65 291.53 48.30Q290.60 50.96 290.09 53.58Q289.58 56.21 289.58 58.26Q289.58 62.42 291.37 64.69Q293.16 66.96 296.62 66.96Q300.01 66.96 302.25 65.49Q304.49 64.02 305.83 62.35Q306.47 62.80 306.47 63.95Q306.47 65.36 305.29 66.99Q304.10 68.62 301.67 69.81Q299.24 70.99 295.40 70.99Z"></path></svg>