<svg version="1.1" xmlns="http://www.w3.org/2000/svg" xmlns:xlink="http://www.w3.org/1999/xlink" role="img" width="208" height="90" viewbox="0 0 208 90"><title>vocdev</title><desc>Generated by logo.svg, https://github.com/bubkoo/logo.svg</desc><path fill="#2b68a7" d="M11.62 70.93L7.14 42.13Q6.82 40.14 5.70 39.44Q4.58 38.74 2.73 38.74L2.09 38.74L2.60 36.05L12.20 36.05L15.14 54.99Q15.46 57.17 15.75 59.38Q16.04 61.58 16.26 63.41Q16.49 65.23 16.62 66.32L16.81 66.32Q19.11 64.08 21.26 61.33Q23.40 58.58 25.03 55.73Q26.66 52.88 27.62 50.26Q28.58 47.63 28.58 45.71Q28.58 43.47 27.50 42.16Q26.41 40.85 24.62 40.85Q24.62 38.22 26.02 36.98Q27.43 35.73 28.97 35.73Q30.95 35.73 32.14 37.10Q33.32 38.48 33.32 41.68Q33.32 45.46 31.69 49.55Q30.06 53.65 27.53 57.58Q25 61.52 22.28 64.82Q19.56 68.11 17.38 70.29L11.62 70.93ZM50.47 70.99Q45.03 70.99 41.61 67.70Q38.18 64.40 38.18 57.74Q38.18 54.22 39.34 50.32Q40.49 46.42 42.86 43.02Q45.22 39.63 48.81 37.52Q52.39 35.41 57.26 35.41Q60.65 35.41 63.40 36.75Q66.15 38.10 67.78 41.04Q69.42 43.98 69.42 48.66Q69.42 51.41 68.71 54.45Q68.01 57.49 66.54 60.43Q65.06 63.38 62.82 65.74Q60.58 68.11 57.48 69.55Q54.38 70.99 50.47 70.99M51.18 67.73Q54.31 67.73 56.52 65.71Q58.73 63.70 60.10 60.53Q61.48 57.36 62.12 53.90Q62.76 50.45 62.76 47.57Q62.76 42.77 61.10 40.72Q59.43 38.67 56.49 38.67Q53.99 38.67 52.07 40.02Q50.15 41.36 48.78 43.57Q47.40 45.78 46.54 48.46Q45.67 51.15 45.26 53.87Q44.84 56.59 44.84 58.90Q44.84 63.76 46.57 65.74Q48.30 67.73 51.18 67.73ZM87.40 70.99Q83.94 70.99 81.13 69.52Q78.31 68.05 76.62 65.14Q74.92 62.22 74.92 57.74Q74.92 54.22 76.14 50.32Q77.35 46.42 79.78 43.02Q82.22 39.63 85.77 37.52Q89.32 35.41 93.99 35.41Q98.79 35.41 101.06 37.30Q103.34 39.18 103.34 41.55Q103.34 43.34 101.86 44.69Q100.39 46.03 97.64 46.03Q97.64 42.96 96.46 40.72Q95.27 38.48 92.71 38.48Q90.66 38.48 88.94 39.86Q87.21 41.23 85.83 43.44Q84.46 45.65 83.53 48.30Q82.60 50.96 82.09 53.58Q81.58 56.21 81.58 58.26Q81.58 62.42 83.37 64.69Q85.16 66.96 88.62 66.96Q92.01 66.96 94.25 65.49Q96.49 64.02 97.83 62.35Q98.47 62.80 98.47 63.95Q98.47 65.36 97.29 66.99Q96.10 68.62 93.67 69.81Q91.24 70.99 87.40 70.99ZM114.34 70.99Q111.53 70.99 109.67 69.46Q107.82 67.92 106.95 65.26Q106.09 62.61 106.09 59.28Q106.09 56.27 106.89 52.98Q107.69 49.68 109.29 46.58Q110.89 43.47 113.19 40.94Q115.50 38.42 118.50 36.91Q121.51 35.41 125.16 35.41Q127.02 35.41 128.62 35.86Q130.22 36.30 131.50 37.01Q131.62 36.18 131.82 35.06Q132.01 33.94 132.14 33.36L132.78 30.29Q132.97 29.39 133.10 28.59Q133.22 27.79 133.22 27.41Q133.22 25.49 131.91 24.94Q130.60 24.40 128.74 24.40L128.23 24.40L128.81 21.71L140.58 21.71L133.16 56.59Q133.03 57.30 132.78 58.64Q132.52 59.98 132.36 61.39Q132.20 62.80 132.20 63.70Q132.20 66.96 134.31 66.96Q135.34 66.96 136.52 66.48Q137.70 66 138.92 65.30L140.07 67.15Q139.18 67.98 137.64 68.88Q136.10 69.78 134.38 70.38Q132.65 70.99 131.05 70.99Q128.74 70.99 127.40 69.58Q126.06 68.18 126.06 65.68Q126.06 64.85 126.22 63.57Q126.38 62.29 126.70 60.69L126.31 60.69Q124.07 65.62 121.10 68.30Q118.12 70.99 114.34 70.99M116.65 66.96Q118.31 66.96 120.07 65.68Q121.83 64.40 123.40 62.22Q124.97 60.05 126.18 57.36Q127.40 54.67 127.98 51.92L130.34 40.59Q129.64 39.44 128.30 38.86Q126.95 38.29 125.48 38.29Q122.92 38.29 120.87 39.73Q118.82 41.17 117.29 43.54Q115.75 45.90 114.70 48.72Q113.64 51.54 113.13 54.38Q112.62 57.23 112.62 59.54Q112.62 63.50 113.77 65.23Q114.92 66.96 116.65 66.96ZM155.62 70.99Q152.17 70.99 149.35 69.52Q146.54 68.05 144.84 65.14Q143.14 62.22 143.14 57.74Q143.14 54.22 144.36 50.32Q145.58 46.42 148.01 43.02Q150.44 39.63 153.99 37.52Q157.54 35.41 162.22 35.41Q166.25 35.41 168.49 37.36Q170.73 39.31 170.73 42.77Q170.73 46.16 168.33 49.07Q165.93 51.98 161.74 53.78Q157.54 55.57 152.17 55.57L149.93 55.57Q149.86 56.27 149.83 56.94Q149.80 57.62 149.80 58.26Q149.80 62.42 151.59 64.69Q153.38 66.96 156.84 66.96Q159.91 66.96 162.31 65.49Q164.71 64.02 166.06 62.35Q166.70 62.80 166.70 63.95Q166.70 65.36 165.51 66.99Q164.33 68.62 161.90 69.81Q159.46 70.99 155.62 70.99M150.50 52.62L151.14 52.62Q154.86 52.62 157.80 51.38Q160.74 50.13 162.44 47.92Q164.14 45.71 164.14 42.77Q164.14 38.48 160.42 38.48Q158.57 38.48 157 39.73Q155.43 40.98 154.15 43.06Q152.87 45.14 151.94 47.63Q151.02 50.13 150.50 52.62ZM182.57 70.93L178.09 42.13Q177.77 40.14 176.65 39.44Q175.53 38.74 173.67 38.74L173.03 38.74L173.54 36.05L183.14 36.05L186.09 54.99Q186.41 57.17 186.70 59.38Q186.98 61.58 187.21 63.41Q187.43 65.23 187.56 66.32L187.75 66.32Q190.06 64.08 192.20 61.33Q194.34 58.58 195.98 55.73Q197.61 52.88 198.57 50.26Q199.53 47.63 199.53 45.71Q199.53 43.47 198.44 42.16Q197.35 40.85 195.56 40.85Q195.56 38.22 196.97 36.98Q198.38 35.73 199.91 35.73Q201.90 35.73 203.08 37.10Q204.26 38.48 204.26 41.68Q204.26 45.46 202.63 49.55Q201 53.65 198.47 57.58Q195.94 61.52 193.22 64.82Q190.50 68.11 188.33 70.29L182.57 70.93Z"></path></svg>